<?xml version="1.0" standalone="no"?>
<!DOCTYPE svg PUBLIC "-//W3C//DTD SVG 20010904//EN"
 "http://www.w3.org/TR/2001/REC-SVG-20010904/DTD/svg10.dtd">
<svg version="1.0" xmlns="http://www.w3.org/2000/svg"
 width="404.000000pt" height="58.000000pt" viewBox="0 0 404.000000 58.000000"
 preserveAspectRatio="xMidYMid meet">

<g transform="translate(0.000000,58.000000) scale(0.100000,-0.100000)"
fill="#000000" stroke="none">
<path d="M0 290 l0 -290 2020 0 2020 0 0 290 0 290 -2020 0 -2020 0 0 -290z
m2490 0 l0 -120 -1065 0 -1065 0 0 120 0 120 1065 0 1065 0 0 -120z m-2220 54
c39 -26 70 -50 70 -53 0 -11 -144 -100 -152 -95 -10 6 -11 178 -1 187 9 10 7
11 83 -39z m2390 -55 c0 -55 -3 -99 -7 -97 -27 12 -142 94 -140 100 2 9 128
97 140 97 4 1 7 -44 7 -100z m195 -30 c17 -7 16 -8 -7 -8 -27 -1 -28 1 -27 47
l2 47 6 -39 c4 -26 13 -42 26 -47z m95 72 c0 -5 -12 -12 -27 -14 l-28 -4 24
-8 c21 -7 22 -9 7 -15 -24 -8 -22 -24 6 -32 20 -5 18 -6 -9 -7 -32 -1 -33 0
-33 44 0 43 1 45 30 45 17 0 30 -4 30 -9z m67 1 c6 -4 11 -23 10 -42 -2 -30
-6 -35 -29 -38 -27 -3 -28 -2 -28 42 0 37 3 46 18 46 9 0 22 -4 29 -8z m93 -1
c0 -5 -12 -12 -27 -14 l-28 -4 24 -8 c21 -7 22 -9 7 -15 -24 -8 -22 -24 6 -32
20 -5 18 -6 -9 -7 -32 -1 -33 0 -33 44 0 43 1 45 30 45 17 0 30 -4 30 -9z m57
-34 c6 -19 8 -18 14 13 6 33 6 32 8 -14 1 -41 -1 -47 -14 -36 -8 6 -18 22 -22
33 -6 19 -8 18 -14 -13 -6 -33 -6 -32 -8 14 -1 41 1 47 14 36 8 -6 18 -22 22
-33z m131 4 c15 -47 15 -62 1 -38 -5 9 -15 17 -21 17 -6 0 -17 -8 -24 -17 -10
-13 -9 -5 2 30 9 26 19 47 23 47 4 0 13 -17 19 -39z m42 -16 l-8 -40 -1 50
c-1 29 3 45 8 40 5 -6 6 -28 1 -50z m69 8 c-1 -42 -2 -44 -9 -18 l-7 30 -7
-27 c-5 -16 -12 -28 -16 -28 -9 0 -21 42 -15 49 3 2 5 -1 5 -7 0 -24 19 -11
25 18 10 46 25 35 24 -17z m94 -36 c18 -4 17 -5 -5 -6 -27 -1 -28 1 -26 47 l1
47 4 -42 c3 -33 8 -43 26 -46z m44 16 c-2 -16 -4 -5 -4 22 0 28 2 40 4 28 2
-13 2 -35 0 -50z m59 42 c3 -14 10 -25 14 -25 4 0 11 11 14 25 11 42 26 28 25
-22 -1 -42 -2 -44 -9 -18 l-7 30 -7 -27 c-5 -16 -12 -28 -16 -28 -4 0 -11 12
-16 28 l-7 27 -7 -30 c-7 -26 -8 -24 -9 18 -1 50 14 64 25 22z m134 15 c0 -5
-9 -10 -20 -10 -28 0 -25 -20 3 -21 l22 -2 -22 -4 c-13 -2 -23 -11 -23 -18 0
-7 10 -16 23 -18 16 -3 13 -5 -10 -6 -33 -1 -33 0 -33 44 0 43 1 45 30 45 17
0 30 -4 30 -10z m66 -2 c5 -7 2 -9 -8 -5 -28 10 -29 -6 -2 -28 40 -32 7 -64
-36 -35 -11 8 -8 9 13 4 33 -7 36 8 5 28 -14 9 -19 20 -15 31 7 20 32 22 43 5z"/>
<path d="M370 290 l0 -110 1055 0 1056 0 -3 108 -3 107 -1052 3 -1053 2 0
-110z m1611 70 c6 0 16 -15 24 -34 33 -78 -40 -151 -95 -96 -20 20 -28 83 -12
106 12 17 46 34 60 29 8 -3 18 -5 23 -5z m-1524 -52 l32 -53 1 53 c0 28 5 52
10 52 6 0 10 -32 10 -75 0 -43 -4 -75 -10 -75 -5 0 -24 26 -42 58 l-33 57 -3
-57 c-4 -84 -17 -71 -17 17 0 44 4 75 10 75 6 0 25 -24 42 -52z m100 40 c1 -7
8 -31 16 -53 l15 -40 14 35 c9 19 18 44 23 55 4 11 9 15 11 9 5 -13 -41 -139
-51 -139 -7 0 -54 120 -55 138 0 13 27 8 27 -5z m155 -38 c11 -27 24 -50 28
-50 5 0 16 23 26 50 26 73 44 66 44 -19 0 -39 -4 -73 -10 -76 -6 -4 -10 14
-11 47 l0 53 -24 -53 c-14 -30 -28 -51 -33 -48 -5 3 -14 23 -22 45 -17 52 -28
53 -23 2 2 -22 -1 -42 -7 -46 -6 -4 -10 20 -10 69 0 90 12 97 42 26z m185 43
c-35 -4 -38 -7 -35 -31 2 -21 8 -26 26 -25 12 2 22 -2 22 -7 0 -6 -11 -10 -25
-10 -20 0 -25 -5 -25 -25 0 -21 5 -25 29 -25 17 0 33 -5 36 -11 5 -7 -8 -9
-37 -7 l-43 3 -3 73 -3 72 48 -2 c44 -1 45 -2 10 -5z m143 -12 c12 -23 5 -47
-16 -55 -13 -5 -12 -9 2 -30 9 -14 14 -31 12 -38 -3 -7 -15 3 -29 24 -30 47
-39 48 -39 2 0 -21 -4 -33 -10 -29 -5 3 -10 37 -10 76 l0 69 40 0 c29 0 42 -5
50 -19z m60 -26 c7 -25 16 -48 21 -50 4 -3 15 17 24 45 9 27 20 50 25 50 5 0
-3 -34 -17 -75 -13 -41 -28 -75 -32 -75 -4 0 -19 34 -34 75 -19 56 -23 75 -13
75 7 0 19 -20 26 -45z m184 36 c3 -5 -9 -8 -26 -7 -44 2 -50 -28 -9 -42 43
-15 57 -46 31 -72 -21 -21 -37 -24 -64 -14 -27 10 -18 22 16 20 48 -2 50 29 4
48 -27 11 -36 21 -36 39 0 13 3 27 7 30 10 10 71 8 77 -2z m175 -9 c5 -10 6
-24 1 -32 -5 -8 -2 -22 7 -36 13 -21 13 -24 -7 -44 -15 -15 -31 -20 -53 -18
l-32 3 -3 73 -3 72 40 0 c29 0 43 -5 50 -18z m119 6 c16 -16 15 -38 -4 -59
-15 -16 -15 -20 0 -41 18 -26 20 -38 6 -38 -6 0 -18 16 -27 35 -21 45 -33 45
-33 -1 0 -21 -4 -33 -10 -29 -5 3 -10 37 -10 76 l0 69 33 0 c18 0 38 -5 45
-12z m62 -64 c0 -47 -4 -73 -10 -69 -5 3 -10 37 -10 76 0 39 4 69 10 69 6 0
10 -32 10 -76z m110 67 c-23 -7 -25 -11 -25 -74 0 -87 -19 -83 -23 6 -3 59 -5
66 -25 70 -12 2 5 4 38 5 40 0 52 -2 35 -7z m113 2 c-21 -4 -23 -10 -23 -74 0
-39 -4 -69 -10 -69 -6 0 -10 30 -10 69 0 64 -2 70 -22 74 -13 2 2 4 32 4 30 0
45 -2 33 -4z m230 -45 l32 -53 3 53 c5 79 19 62 17 -20 0 -40 -5 -73 -10 -72
-6 1 -25 25 -42 55 l-33 54 0 -52 c0 -28 -4 -55 -10 -58 -6 -4 -10 22 -10 69
0 45 4 76 10 76 6 0 25 -24 43 -52z m112 0 l19 -52 17 39 c10 22 18 46 18 53
1 6 6 12 12 12 6 0 9 -6 6 -12 -2 -7 -15 -41 -27 -76 -13 -35 -27 -59 -31 -55
-4 4 -19 38 -33 76 -18 47 -21 67 -13 67 7 0 21 -23 32 -52z m146 -5 l25 -58
23 58 c33 80 51 76 51 -12 0 -39 -4 -73 -10 -76 -6 -4 -10 12 -10 39 0 57 -13
59 -30 5 -8 -22 -17 -42 -22 -45 -5 -3 -18 16 -31 43 l-22 48 -3 -47 c-5 -75
-17 -56 -17 27 0 48 4 75 11 75 6 0 22 -26 35 -57z"/>
<path d="M1921 331 c-15 -27 -14 -63 2 -85 32 -43 81 15 61 72 -12 34 -48 42
-63 13z"/>
<path d="M977 343 c-4 -3 -7 -15 -7 -25 0 -20 44 -26 55 -8 14 22 -30 52 -48
33z"/>
<path d="M1390 327 c0 -30 6 -36 31 -30 28 8 21 47 -8 51 -18 3 -23 -1 -23
-21z"/>
<path d="M1390 255 c0 -23 4 -26 28 -23 19 2 27 9 27 23 0 14 -8 21 -27 23
-24 3 -28 0 -28 -23z"/>
<path d="M1520 326 c0 -21 5 -26 26 -26 21 0 25 4 22 23 -2 14 -11 23 -25 25
-19 3 -23 -1 -23 -22z"/>
<path d="M200 289 c0 -61 3 -78 13 -73 6 5 33 23 60 42 l47 34 -55 39 c-31 21
-58 39 -60 39 -3 0 -5 -36 -5 -81z"/>
<path d="M2585 334 c-27 -19 -51 -38 -52 -42 -2 -4 12 -16 30 -28 17 -11 44
-29 60 -38 l27 -18 0 81 c0 44 -3 81 -7 80 -5 0 -30 -16 -58 -35z"/>
<path d="M2980 310 c0 -5 7 -10 15 -10 8 0 15 5 15 10 0 6 -7 10 -15 10 -8 0
-15 -4 -15 -10z"/>
<path d="M2980 275 c0 -8 7 -15 15 -15 8 0 15 7 15 15 0 8 -7 15 -15 15 -8 0
-15 -7 -15 -15z"/>
<path d="M3270 306 c0 -9 5 -16 10 -16 6 0 10 4 10 9 0 6 -4 13 -10 16 -5 3
-10 -1 -10 -9z"/>
</g>
</svg>
